<svg height="80" viewBox="0 0 59 80" width="59" xmlns="http://www.w3.org/2000/svg"><path d="m33.4333333 64.3902439h3.9696067c2.1522868 0 3.89706 1.751567 3.89706 3.902439 0 2.1552576-1.7545551 3.9024391-3.89706 3.9024391h-3.9696067v3.8725962c0 2.1717393-1.7654335 3.9322818-3.9333333 3.9322818-2.17232 0-3.9333333-1.7599031-3.9333333-3.9322818v-3.8725962h-3.9696067c-2.1522868 0-3.89706-1.751567-3.89706-3.9024391 0-2.1552575 1.7545551-3.902439 3.89706-3.902439h3.9696067v-6.1115538c-14.4328139-1.9078719-25.5666667-14.1691219-25.5666667-29.0103974 0-16.1644317 13.2075999-29.2682927 29.5-29.2682927s29.5 13.103861 29.5 29.2682927c0 14.8412755-11.1338528 27.1025255-25.5666667 29.0103974zm-3.9333333-13.6585366c11.9477601 0 21.6333333-9.609498 21.6333333-21.4634146s-9.6855732-21.46341465-21.6333333-21.46341465-21.63333333 9.60949805-21.63333333 21.46341465 9.68557323 21.4634146 21.63333333 21.4634146z" fill="#e31fce" fill-rule="evenodd"/></svg>