<svg height="72" viewBox="0 0 69 72" width="69" xmlns="http://www.w3.org/2000/svg"><path d="m61.3333333 12.836624-11.6451594 11.6451595c4.8437635 5.0466422 7.8118261 11.8444697 7.8118261 19.3221683 0 15.5722474-12.8718134 28.1960482-28.75 28.1960482s-28.75-12.6238008-28.75-28.1960482c0-15.5722475 12.8718134-28.1960483 28.75-28.1960483 5.5075935 0 10.6534734 1.5188402 15.0259221 4.152736l12.2416934-12.2416933h-10.0916348c-2.0762118 0-3.759314-1.68739829-3.759314-3.7594731 0-2.07629966 1.6785451-3.7594731 3.759314-3.7594731h17.361029 5.7129903v21.5498577c0 2.1133649-1.7205496 3.8265857-3.8333333 3.8265857-2.1170916 0-3.8333334-1.7242754-3.8333334-3.8265857zm-32.5833333 51.6444298c11.6440035 0 21.0833333-9.2574539 21.0833333-20.677102 0-11.4196482-9.4393298-20.6771021-21.0833333-20.6771021s-21.08333333 9.2574539-21.08333333 20.6771021c0 11.4196481 9.43932983 20.677102 21.08333333 20.677102z" fill="#1f73e3" fill-rule="evenodd"/></svg>